HIERARCHY
ROOT root
{
	OFFSET	0	13.1	24.9
	CHANNELS 6  Xposition Yposition Zposition Xrotation Yrotation Zrotation
	JOINT spine_1
	{
		OFFSET	0	9.99999	0
		CHANNELS 3  Xrotation Yrotation Zrotation
		JOINT spine_2
		{
			OFFSET	0	112	-10
			CHANNELS 3  Xrotation Yrotation Zrotation
			JOINT spine_3
			{
				OFFSET	0	206.5	19.3
				CHANNELS 3  Xrotation Yrotation Zrotation
				JOINT spine_4
				{
					OFFSET	0	110.4	14.6
					CHANNELS 3  Xrotation Yrotation Zrotation
					JOINT neck_1
					{
						OFFSET	0	71.8	-50.3
						CHANNELS 3  Xrotation Yrotation Zrotation
						JOINT neck_2
						{
							OFFSET	0	86.2	-25.8
							CHANNELS 3  Xrotation Yrotation Zrotation
							JOINT head_ee
							{
								OFFSET	0	179.8	-8.7
								CHANNELS 3  Xrotation Yrotation Zrotation
								End Site
								{
									OFFSET	1	0	0
								}
							}
						}
					}
					JOINT left_clavicle
					{
						OFFSET	-43.2	22.4	-70.8
						CHANNELS 3  Xrotation Yrotation Zrotation
						JOINT left_shoulder
						{
							OFFSET	-93.9	-5.79999	48.7
							CHANNELS 3  Xrotation Yrotation Zrotation
							JOINT left_elbow
							{
								OFFSET	-291.4	-30.8	15.2
								CHANNELS 3  Xrotation Yrotation Zrotation
								JOINT left_lowarm_twist
								{
									OFFSET	-110.7	-3.89999	13.6
									CHANNELS 3  Xrotation Yrotation Zrotation
									JOINT left_hand
									{
										OFFSET	-110.7	-3.89999	13.6
										CHANNELS 3  Xrotation Yrotation Zrotation
										JOINT left_ee
										{
											OFFSET	-80.8	-5.10001	12.1
											CHANNELS 3  Xrotation Yrotation Zrotation
											End Site
											{
												OFFSET	1	0	0
											}
										}
									}
								}
							}
						}
					}
					JOINT right_clavicle
					{
						OFFSET	43.2	22.4	-70.8
						CHANNELS 3  Xrotation Yrotation Zrotation
						JOINT right_shoulder
						{
							OFFSET	93.9	-5.79999	48.7
							CHANNELS 3  Xrotation Yrotation Zrotation
							JOINT right_elbow
							{
								OFFSET	291.4	-30.8	15.2
								CHANNELS 3  Xrotation Yrotation Zrotation
								JOINT right_lowarm_twist
								{
									OFFSET	110.7	-3.89999	13.6
									CHANNELS 3  Xrotation Yrotation Zrotation
									JOINT right_hand
									{
										OFFSET	110.7	-3.89999	13.6
										CHANNELS 3  Xrotation Yrotation Zrotation
										JOINT right_ee
										{
											OFFSET	80.8	-5.10001	12.1
											CHANNELS 3  Xrotation Yrotation Zrotation
											End Site
											{
												OFFSET	1	0	0
											}
										}
									}
								}
							}
						}
					}
				}
			}
		}
	}
	JOINT left_hip
	{
		OFFSET	-82.8	-127.5	0.300001
		CHANNELS 3  Xrotation Yrotation Zrotation
		JOINT left_knee
		{
			OFFSET	-28.2	-396.7	2.2
			CHANNELS 3  Xrotation Yrotation Zrotation
			JOINT left_ankle
			{
				OFFSET	-11.7	-411.3	35.4
				CHANNELS 3  Xrotation Yrotation Zrotation
				JOINT left_toes
				{
					OFFSET	0	-60	-88.6
					CHANNELS 3  Xrotation Yrotation Zrotation
					JOINT left_foot_ee
					{
						OFFSET	-22.5	-16.5	-42.2
						CHANNELS 3  Xrotation Yrotation Zrotation
						End Site
						{
							OFFSET	1	0	0
						}
					}
				}
			}
		}
	}
	JOINT right_hip
	{
		OFFSET	82.8	-127.5	0.300001
		CHANNELS 3  Xrotation Yrotation Zrotation
		JOINT right_knee
		{
			OFFSET	28.2	-396.7	2.2
			CHANNELS 3  Xrotation Yrotation Zrotation
			JOINT right_ankle
			{
				OFFSET	11.7	-411.3	35.4
				CHANNELS 3  Xrotation Yrotation Zrotation
				JOINT right_toes
				{
					OFFSET	0	-60	-88.6
					CHANNELS 3  Xrotation Yrotation Zrotation
					JOINT right_foot_ee
					{
						OFFSET	22.5	-16.5	-42.2
						CHANNELS 3  Xrotation Yrotation Zrotation
						End Site
						{
							OFFSET	1	0	0
						}
					}
				}
			}
		}
	}
}
MOTION
Frames: 15
Frame Time: 0.02
4117.93 694.125 -323.981 1.94592 38.9179 -0.772669 -1.94529 -0.0715957 -1.17043 -1.94453 0.00302193 -1.17262 -1.94389 0.288171 -1.13667 -1.94568 0.105053 -1.16791 -1.69694 11.3687 4.8471 -1.51926 16.6608 6.53469 -0.0 0.0 -0.0 2.65683 19.0194 6.20029 -8.27752 -24.0796 71.5698 0.939387 -24.9543 0.207868 24.7455 0.198658 -3.1303 0.720475 1.38259 5.38265 -0.0 0.0 -0.0 10.5691 27.3612 -19.9873 4.46384 12.5203 -56.5632 0.67123 18.3924 -0.108671 46.1806 0.709147 5.69914 -0.417937 -2.62512 1.66675 0.0 0.0 0.0 22.5017 13.5437 -9.08948 -26.1751 0.171463 3.97836 28.6255 -4.1998 -3.80248 -34.8316 0.0 0.0 -0.0 0.0 -0.0 -4.96598 16.4936 -4.07033 0.303552 0.0126185 0.0448733 37.7385 13.2254 4.90735 3.97904 -0.0 -0.0 0.0 0.0 0.0 
4122.52 697.616 -325.598 1.29517 39.0001 0.415939 -1.99706 -0.0989985 -1.13985 -1.99633 -0.0262712 -1.14384 -1.99511 0.253748 -1.11565 -1.99684 0.0743792 -1.14172 -2.83876 9.90044 3.81475 -2.72504 15.0128 5.37332 -0.0 0.0 -0.0 3.36633 19.1284 7.27127 -9.13659 -21.4947 69.8247 0.878453 -23.5165 0.182854 24.6411 0.200673 -3.11712 0.475414 0.0886246 3.21314 -0.0 0.0 -0.0 12.0269 27.7519 -23.2337 7.6015 11.0892 -53.4968 0.78793 21.3215 -0.148324 45.41 0.660145 5.61355 -0.54768 -0.899863 3.27108 0.0 0.0 0.0 20.9413 13.0988 -7.9029 -13.1865 0.314582 1.99475 21.8967 -2.75355 -3.00588 -36.6695 0.0 0.0 -0.0 0.0 -0.0 -4.61072 15.7026 -5.5798 2.41107 0.10677 0.354534 37.6575 9.91934 4.81575 3.64088 -0.0 -0.0 0.0 0.0 0.0 
4104.75 696.704 -333.906 1.92251 38.0078 -0.433181 -2.02174 -0.0158929 -1.0531 -2.02113 0.0511468 -1.05197 -2.02153 0.30687 -1.00752 -2.02292 0.143909 -1.04334 -2.31163 9.64592 2.15028 -2.19211 15.7775 3.54973 -0.0 0.0 -0.0 3.59937 20.5398 7.63997 -12.1905 -19.5341 69.7718 0.821228 -22.1369 0.160652 24.4347 0.204587 -3.09104 0.437461 -0.250938 2.81858 -0.0 0.0 -0.0 12.093 28.0898 -23.3412 7.9042 11.7474 -52.7335 0.907798 24.213 -0.194726 44.7598 0.619704 5.54083 -0.522078 0.313285 3.62351 0.0 0.0 0.0 23.0051 13.1851 -6.84626 -10.6968 0.290513 1.61353 21.4772 -2.41592 -2.95166 -36.7838 0.0 0.0 -0.0 0.0 -0.0 -7.57588 15.4606 -3.78751 3.86709 0.178454 0.566395 38.7097 10.5321 4.92564 3.3165 -0.0 -0.0 0.0 0.0 0.0 
4096.53 695.501 -340.043 1.11756 38.1706 0.270539 -1.91389 0.0338438 -1.17979 -1.91312 0.108843 -1.17524 -1.91476 0.390906 -1.11367 -1.91643 0.210129 -1.16142 -1.84604 9.90363 1.90658 -1.70646 16.3728 3.27562 -0.0 0.0 -0.0 3.7066 21.8435 7.80562 -14.4712 -19.0639 69.5731 0.822023 -22.1563 0.160952 24.0036 0.212456 -3.03654 0.365741 -0.815193 2.10385 -0.0 0.0 -0.0 11.7717 27.4492 -22.6909 8.36319 13.6277 -52.4879 1.0492 27.4622 -0.256378 44.7843 0.621214 5.54358 -0.478562 0.82314 3.55172 0.0 0.0 0.0 24.2643 13.1939 -6.35122 -8.63238 0.258008 1.29843 21.5963 -2.51272 -2.96707 -36.7765 0.0 0.0 -0.0 0.0 -0.0 -7.78537 15.373 -3.74968 4.26191 0.198821 0.623531 37.4452 11.4057 4.83154 2.18061 -0.0 -0.0 0.0 0.0 0.0 
4091.79 692.979 -344.639 0.91098 38.8235 0.269504 -1.88362 0.00405735 -1.09087 -1.88296 0.0734596 -1.0884 -1.88382 0.334925 -1.03819 -1.88528 0.166768 -1.07805 -2.68329 9.40131 1.41408 -2.57154 15.9592 2.78853 -0.0 0.0 -0.0 3.65396 21.7998 7.7299 -15.2631 -18.8961 69.393 0.804612 -21.7312 0.154445 23.653 0.218553 -2.99217 0.305421 -1.06316 1.59637 -0.0 0.0 -0.0 11.8444 28.1526 -22.7686 9.71641 13.602 -51.8148 1.09589 28.4955 -0.278283 44.8502 0.625278 5.55097 -0.528588 1.28679 4.08731 0.0 0.0 0.0 25.8445 13.2942 -4.88091 -5.1184 0.176642 0.765401 19.6592 -2.53982 -2.72714 -36.9412 0.0 0.0 -0.0 0.0 -0.0 -8.7145 15.6687 -3.76212 5.32859 0.255813 0.777192 38.6567 9.85825 4.90518 2.11795 -0.0 -0.0 0.0 0.0 0.0 
4079.66 688.612 -350.981 1.20788 39.288 0.565173 -1.99203 0.0321293 -1.31752 -1.99107 0.115894 -1.31281 -1.99296 0.432857 -1.24481 -1.99505 0.230847 -1.29754 -1.80617 9.76601 1.1908 -1.65979 16.686 2.49937 -0.0 0.0 -0.0 3.50078 22.7955 7.51967 -16.1284 -18.9924 70.0302 0.82966 -22.342 0.163843 23.269 0.224921 -2.94353 0.239173 -0.854796 1.23997 -0.0 0.0 -0.0 10.8674 27.5783 -20.632 10.5563 16.6985 -51.9557 1.14632 29.5892 -0.302764 44.7418 0.618596 5.53881 -0.321131 2.75341 3.32335 0.0 0.0 0.0 26.2961 13.341 -4.19112 -2.21219 0.0847431 0.328899 20.1789 -3.16941 -2.79756 -36.1567 0.0 0.0 -0.0 0.0 -0.0 -8.62066 13.6493 -4.07176 2.43657 0.107979 0.35826 36.9657 9.7564 4.74787 2.19306 -0.0 -0.0 0.0 0.0 0.0 
4072.78 687.217 -361.719 1.61843 40.2267 0.0969711 -1.95233 0.0197963 -1.10799 -1.95165 0.0902563 -1.10449 -1.95284 0.356387 -1.04931 -1.95433 0.186207 -1.09242 -1.9999 9.69112 0.190051 -1.84108 17.3656 1.45871 -0.0 0.0 -0.0 3.5002 23.3285 7.52296 -17.3627 -20.1816 68.5711 0.821599 -22.146 0.160792 22.2294 0.24052 -2.81165 0.302768 -0.144209 1.96219 -0.0 0.0 -0.0 11.1731 27.1052 -21.3767 10.9958 16.76 -52.0483 1.21395 31.0196 -0.336894 45.9191 0.692388 5.67017 -0.540132 2.758 4.80031 0.0 0.0 0.0 26.0121 14.3215 -3.77714 -1.2135 0.0480607 0.180022 17.2766 -3.20325 -2.42854 -36.6361 0.0 0.0 -0.0 0.0 -0.0 -8.51565 12.966 -4.35731 -0.718228 -0.0289069 -0.106429 38.358 7.79405 4.83502 2.62014 -0.0 -0.0 0.0 0.0 0.0 
4062.98 685.729 -371.87 1.79312 41.2309 -0.915194 -2.04252 0.021889 -0.704419 -2.04224 0.0666675 -0.701599 -2.04284 0.236466 -0.663906 -2.04343 0.12865 -0.692918 -2.07752 9.44046 0.241898 -1.93041 16.8794 1.49159 -0.0 0.0 -0.0 3.01331 23.1719 6.84434 -17.7148 -18.9668 68.3585 0.895385 -23.9193 0.189664 21.6 0.2488 -2.73169 0.0176553 -0.491557 -0.0892611 -0.0 0.0 -0.0 11.0877 25.8475 -21.3259 11.7115 18.65 -52.3781 1.26677 32.1077 -0.364544 46.234 0.712586 5.70505 -0.563718 3.93924 5.46984 0.0 0.0 0.0 24.5841 14.3781 -1.61877 1.13336 -0.0483267 -0.1672 16.8754 -4.38983 -2.38618 -36.4681 0.0 0.0 -0.0 0.0 -0.0 -8.33331 13.3619 -3.37574 -4.00086 -0.143927 -0.597017 39.0568 6.91203 4.88091 2.34111 -0.0 -0.0 0.0 0.0 0.0 
4053.08 680.015 -378.729 1.79723 41.5694 -0.54165 -1.91617 0.0514924 -0.924932 -1.9157 0.110241 -0.919782 -1.91712 0.330264 -0.865497 -1.91812 0.189436 -0.90679 -2.47091 9.17298 0.24004 -2.34239 16.4385 1.50419 -0.0 0.0 -0.0 3.00702 23.2746 6.83783 -18.8123 -20.5286 68.1981 0.847408 -22.7716 0.170651 21.144 0.25425 -2.6737 0.235782 -0.588047 1.32892 -0.0 0.0 -0.0 10.5332 25.7788 -20.0831 13.8833 18.6137 -52.951 1.33544 33.4844 -0.40174 46.2687 0.714821 5.70889 -0.696813 5.19443 6.91478 0.0 0.0 0.0 25.9128 14.5454 -0.96225 3.83617 -0.176876 -0.561915 12.5993 -4.94291 -1.81826 -37.4897 0.0 0.0 -0.0 0.0 -0.0 -8.19332 13.4663 -3.96005 -6.03319 -0.200971 -0.903681 39.2531 6.24784 4.88661 1.98443 -0.0 -0.0 0.0 0.0 0.0 
4048.1 677.449 -387.373 0.900798 42.8278 -0.805888 -1.83971 -0.0334078 -0.33582 -1.83965 -0.0119712 -0.337265 -1.83952 0.0698169 -0.330177 -1.83967 0.0167956 -0.33706 -3.20418 8.63036 -1.27061 -3.07622 16.694 -0.054041 -0.0 0.0 -0.0 2.99031 21.8465 6.78104 -17.798 -18.7807 67.9203 0.745498 -20.2691 0.133259 21.1322 0.254385 -2.67219 -0.19703 -1.66568 -2.02471 -0.0 0.0 -0.0 11.191 25.1596 -21.633 16.1145 19.093 -52.9104 1.33498 33.4753 -0.401485 46.6394 0.738863 5.74978 -0.653136 4.09027 6.14019 0.0 0.0 0.0 27.0764 14.59 0.64358 3.94469 -0.182426 -0.577635 12.4056 -5.4908 -1.79563 -37.7734 0.0 0.0 -0.0 0.0 -0.0 -7.94762 15.9727 -4.45257 -6.39102 -0.209886 -0.95787 39.4594 3.57569 4.86506 1.41967 -0.0 -0.0 0.0 0.0 0.0 
4039.3 675.545 -396.364 -0.16668 43.6497 -0.326797 -1.50724 -0.000507208 -0.259975 -1.5072 0.0160366 -0.25948 -1.50725 0.0767753 -0.24838 -1.50733 0.0365849 -0.257388 -2.75093 8.60057 -1.2715 -2.61074 16.6052 -0.120884 -0.0 0.0 -0.0 2.6572 21.8649 6.30662 -18.4255 -18.6602 67.571 0.766999 -20.8042 0.140802 20.5281 0.260878 -2.59531 -0.174545 -1.76606 -1.91663 -0.0 0.0 -0.0 11.1713 25.485 -21.5541 15.7831 19.0366 -52.4406 1.33465 33.4689 -0.401307 46.6813 0.7416 5.7544 -0.53196 4.07974 5.31579 0.0 0.0 0.0 27.5451 14.5104 1.02026 4.06114 -0.188415 -0.594493 12.4402 -6.11505 -1.8051 -37.9047 0.0 0.0 -0.0 0.0 -0.0 -8.06809 15.9572 -4.08202 -6.29497 -0.207526 -0.94332 39.6074 3.72604 4.87986 0.308435 -0.0 -0.0 0.0 0.0 0.0 
4021.68 673.342 -409.004 -1.87984 43.2539 0.618805 -1.0328 0.33715 -0.17355 -1.03285 0.34751 -0.151744 -1.03384 0.372939 -0.0685963 -1.03367 0.357425 -0.126635 -1.83299 8.5761 -1.20146 -1.6701 16.4315 -0.172656 -0.0 0.0 -0.0 2.5172 22.898 6.14602 -19.9699 -18.5407 67.4208 0.789134 -21.3511 0.148762 19.2533 0.271917 -2.43286 -0.180569 -1.85642 -1.99554 -0.0 0.0 -0.0 11.3968 25.9166 -22.0181 14.727 18.8842 -51.3479 1.32227 33.2237 -0.3945 47.1958 0.775452 5.81089 -0.377374 3.64325 4.08401 0.0 0.0 0.0 28.5494 14.9255 1.28479 4.01347 -0.185959 -0.587594 12.6632 -7.58571 -1.84806 -37.9006 0.0 0.0 -0.0 0.0 -0.0 -8.48323 15.6992 -3.20291 -5.97965 -0.199608 -0.895576 38.9587 3.79269 4.82396 -1.1619 0.0 0.0 0.0 0.0 0.0 
4010.05 669.984 -416.394 -3.02677 43.5511 1.45181 -0.652435 0.21387 -0.164102 -0.652448 0.223879 -0.15016 -0.653064 0.251559 -0.0968898 -0.653001 0.2331 -0.135403 -1.21359 8.39219 -1.39618 -1.0344 16.2035 -0.482146 -0.0 0.0 -0.0 2.93689 22.2877 6.71632 -20.5392 -18.8141 67.3488 0.819174 -22.0869 0.159879 17.9873 0.279301 -2.27133 0.100791 -2.12057 -0.219698 -0.0 0.0 -0.0 11.5297 27.0667 -22.1879 14.3587 18.6674 -50.7445 1.32681 33.3138 -0.396992 47.296 0.782102 5.82185 -0.104428 3.9014 2.35486 0.0 0.0 0.0 29.2674 14.7299 1.50539 3.41853 -0.155795 -0.501317 13.4068 -9.82924 -1.97305 -38.0603 0.0 0.0 -0.0 0.0 -0.0 -9.8444 16.0019 -2.16784 -4.18015 -0.149397 -0.623989 38.131 5.81403 4.77958 -3.88811 0.0 0.0 0.0 0.0 0.0 
4002.2 666.161 -424.428 -3.89499 44.3303 2.15875 -0.516279 0.173774 -0.227846 -0.51627 0.18792 -0.216326 -0.516999 0.230733 -0.169922 -0.516982 0.201002 -0.204229 -1.23729 8.44965 -1.26309 -1.06108 16.2026 -0.330559 -0.0 0.0 -0.0 3.09916 20.3739 6.90192 -19.8202 -19.444 67.8926 0.804018 -21.7166 0.154226 18.0366 0.27908 -2.27761 -0.0699512 -2.17537 -1.38877 -0.0 0.0 -0.0 11.8519 26.6142 -22.9728 14.2037 18.1833 -50.0623 1.38005 34.3561 -0.426638 47.1114 0.769862 5.80164 0.344288 5.19358 -0.119989 0.0 0.0 0.0 30.3045 14.9853 1.68026 2.84619 -0.127626 -0.418033 13.4927 -10.0729 -1.98764 -38.3343 0.0 0.0 -0.0 0.0 -0.0 -9.92875 15.7955 -3.7353 -4.32912 -0.153878 -0.646412 39.9794 4.70616 4.92547 -5.52236 0.0 0.0 0.0 0.0 0.0 
3986.91 664.302 -437.037 -3.918 43.5717 2.09533 -0.457853 0.349903 -0.114366 -0.457917 0.356471 -0.091869 -0.458543 0.367925 -0.0119498 -0.458361 0.36142 -0.0699074 -0.598912 8.36122 -0.526259 -0.434251 15.395 0.369695 -0.0 0.0 -0.0 2.93528 20.3071 6.65918 -20.3083 -19.0768 68.2422 0.800332 -21.6263 0.152864 17.0174 0.282542 -2.14748 0.125412 -2.45028 -0.193642 -0.0 0.0 -0.0 12.094 27.5239 -23.4148 13.9059 18.7855 -49.4811 1.36783 34.1192 -0.419763 47.7303 0.811154 5.86925 0.859726 6.10977 -3.21072 0.0 0.0 0.0 31.049 14.7041 0.671537 0.184227 -0.00762995 -0.0272415 11.2448 -13.4004 -1.70671 -39.2979 0.0 0.0 -0.0 0.0 -0.0 -11.7222 13.2997 -2.9656 -3.11871 -0.115785 -0.464558 34.6723 3.84974 4.42627 -8.41893 0.0 0.0 0.0 0.0 0.0 
